# xmcd
#
# Track frame offsets:
#       150
#       16773
#       37382
#       62631
#       83948
#       108926
#       132870
#       152779
#       173862
#       191566
#       212717
#       230775
#       250647
#       263540
#       280991
#       295241
#
# Disc length: 4420 seconds
#
# Revision: 0
# Processed by: cddbd v1.5.1PL0 Copyright (c) Steve Scherf et al.
# Submitted via: WhereIsIt 3.52
#
DISCID=e4114210
DTITLE=Eric Clapton - The best of (2/2)
DYEAR=2002
DGENRE=
TTITLE0=Wonderful Tonight
TTITLE1=Tears In Heaven
TTITLE2=Running On Fight
TTITLE3=Blue Eyes Blue
TTITLE4=Pretty Girl
TTITLE5=My Fathers Eyes
TTITLE6=I Shot The Sheriff
TTITLE7=Layla (unplugged)
TTITLE8=Change The World
TTITLE9=Born In Time
TTITLE10=County Jail Blues
TTITLE11=Knockin' On Heaven's Doors
TTITLE12=Alberta
TTITLE13=The Red Rooster (with H. Wolf and S. Winwood and B. Nyman and C. Watts)
TTITLE14=Here In The Dark (with Taj Mahal)
TTITLE15=Double Trouble (live)
EXTD=
EXTT0=
EXTT1=
EXTT2=
EXTT3=
EXTT4=
EXTT5=
EXTT6=
EXTT7=
EXTT8=
EXTT9=
EXTT10=
EXTT11=
EXTT12=
EXTT13=
EXTT14=
EXTT15=
PLAYORDER=
